<?xml version="1.0" encoding="UTF-8" standalone="no"?>
<!-- Created with Inkscape (http://www.inkscape.org/) -->

<svg
   width="118.77101mm"
   height="60.210995mm"
   viewBox="0 0 118.77101 60.210995"
   version="1.1"
   id="svg1"
   sodipodi:docname="Haploteam.svg"
   inkscape:export-filename="Haploteam.png"
   inkscape:export-xdpi="300"
   inkscape:export-ydpi="300"
   inkscape:version="1.4.1 (93de688d, 2025-03-30)"
   xmlns:inkscape="http://www.inkscape.org/namespaces/inkscape"
   xmlns:sodipodi="http://sodipodi.sourceforge.net/DTD/sodipodi-0.dtd"
   xmlns="http://www.w3.org/2000/svg"
   xmlns:svg="http://www.w3.org/2000/svg">
  <sodipodi:namedview
     id="namedview1"
     pagecolor="#ffffff"
     bordercolor="#000000"
     borderopacity="0.25"
     inkscape:showpageshadow="2"
     inkscape:pageopacity="0.0"
     inkscape:pagecheckerboard="0"
     inkscape:deskcolor="#d1d1d1"
     inkscape:document-units="mm"
     showgrid="false"
     inkscape:zoom="0.01"
     inkscape:cx="200"
     inkscape:cy="150"
     inkscape:window-width="1472"
     inkscape:window-height="814"
     inkscape:window-x="0"
     inkscape:window-y="33"
     inkscape:window-maximized="1"
     inkscape:current-layer="svg1" />
  <defs
     id="defs1" />
  <g
     id="layer1">
    <g
       id="g1"
       transform="translate(-57.560215,-109.68341)">
      <g
         id="g393"
         transform="matrix(0.31008493,0,0,0.31008493,169.91955,107.17754)">
        <path
           fill-rule="evenodd"
           fill="#e94b86"
           fill-opacity="1"
           d="m -304.14365,55.524199 c 0.86403,7.06933 -1.5806,14.12351 -6.63525,19.13268 -0.0179,0.0179 -0.0345,0.0344 -0.0345,0.0344 l -23.31916,23.10695 h -0.0331 c -15.18185,15.044041 -19.14371,37.187731 -11.81943,55.935951 -0.86266,-7.06934 1.58198,-14.1249 6.63663,-19.13407 l 0.0344,-0.0345 23.31778,-23.10557 h 0.0344 c 15.16393,-15.027511 19.12579,-37.169831 11.81805,-55.935951 z m 0,0"
           id="path72-4"
           style="fill:#459cd5;fill-opacity:1;stroke-width:0.352778" />
        <path
           fill-rule="evenodd"
           fill="#25ac9b"
           fill-opacity="1"
           d="m -344.84676,55.339539 c -7.47861,18.69722 -3.71933,40.87675 11.30818,56.040681 h 0.0344 l 23.14002,23.35223 c 5.00919,5.05465 7.39044,12.13087 6.46164,19.19332 7.47862,-18.6986 3.73586,-40.86021 -11.30818,-56.042061 h -0.0345 l -23.14139,-23.35223 c -5.00917,-5.05465 -7.38904,-12.13087 -6.46024,-19.19194 z m 0,0"
           id="path73-99"
           style="fill:#151a3f;fill-opacity:1;stroke-width:0.352778" />
        <path
           fill-rule="evenodd"
           fill="#c62101"
           fill-opacity="1"
           d="m -345.79209,115.32279 c -4.93338,12.29899 -4.99539,26.05043 -0.19293,38.41143 -0.86265,-7.06933 1.58199,-14.12489 6.63663,-19.13406 -5.0257,-5.07118 -7.42349,-12.19977 -6.4437,-19.27737 z m 0,0"
           id="path74-4"
           style="fill:#256494;fill-opacity:1;stroke-width:0.352778" />
        <path
           fill-rule="evenodd"
           fill="#f04a8a"
           fill-opacity="1"
           d="m -310.39856,134.698 -20.98063,20.79047 -19.61362,19.43585 c -4.37803,4.37527 -4.39457,11.457 -0.0372,15.85433 4.35736,4.39732 11.44047,4.44693 15.87087,0.12402 l 19.61362,-19.43585 c 5.0381,-4.99126 9.01099,-10.98848 11.64304,-17.57688 0.94534,-7.04315 -1.46899,-14.11938 -6.46162,-19.15749 z m 0,0"
           id="path75-5"
           style="fill:#459cd5;fill-opacity:1;stroke-width:0.352778" />
        <path
           fill-rule="evenodd"
           fill="#2e3959"
           fill-opacity="1"
           d="m -303.74539,115.51433 c 0.91639,7.08588 -1.54616,14.19242 -6.61872,19.21812 5.00917,5.05465 7.39042,12.13087 6.46162,19.19332 4.91546,-12.31691 4.97885,-26.06835 0.1571,-38.41144 z m 0,0"
           id="path76-0"
           style="fill:#256494;fill-opacity:1;stroke-width:0.352778" />
        <path
           fill-rule="evenodd"
           fill="#287cbc"
           fill-opacity="1"
           d="m -298.87954,19.634569 c -4.37389,-4.41386 -11.508,-4.44693 -15.92323,-0.0717 l -18.40095,18.2342 c -5.03673,4.99263 -8.99445,10.97194 -11.64304,17.57688 -0.9288,7.02662 1.46899,14.11938 6.46024,19.15749 l 0.0344,0.0344 36.45738,-36.12665 2.92558,-2.89939 c 4.41386,-4.37389 4.46347,-11.49008 0.0896,-15.90532 z m 0,0"
           id="path77-6"
           style="fill:#459cd5;fill-opacity:1;stroke-width:0.352778" />
        <path
           fill-rule="evenodd"
           fill="#075681"
           fill-opacity="1"
           d="m -344.84676,55.339539 c -4.91546,12.31553 -4.97885,26.06697 -0.17501,38.42797 -0.88057,-7.08725 1.56407,-14.21033 6.63525,-19.23603 -5.00917,-5.05465 -7.38904,-12.13087 -6.46024,-19.19194 z m 0,0"
           id="path78-9"
           style="fill:#256494;fill-opacity:1;stroke-width:0.352778" />
        <path
           fill-rule="evenodd"
           fill="#2b3b5c"
           fill-opacity="1"
           d="m -315.21067,97.883709 h -0.0345 l -9.40097,-9.48641 -9.48642,9.40097 h -0.0331 c -1.95682,1.93891 -3.77583,4.048681 -5.40605,6.282481 1.79696,2.61 3.81993,5.06705 6.04959,7.31738 l 0.0179,-0.0179 8.71471,8.79465 8.79326,-8.71472 h 0.0344 c 2.23242,-2.21312 4.27743,-4.65087 6.0992,-7.24434 -1.60955,-2.24758 -3.41065,-4.375271 -5.34817,-6.332091 z m 0,0"
           id="path79-0"
           style="fill:#256494;fill-opacity:1;stroke-width:0.352778" />
        <path
           fill-rule="evenodd"
           fill="#ecb004"
           fill-opacity="1"
           d="m -339.31394,134.46374 -0.0344,0.0344 c -5.03811,4.99125 -7.49929,12.06335 -6.61734,19.11477 2.57142,6.61182 6.47265,12.62696 11.48182,17.68161 l 19.43585,19.61362 c 4.37389,4.3794 11.47492,4.37802 15.87086,0.0207 4.39732,-4.35736 4.44693,-11.44048 0.10749,-15.85433 z m 0,0"
           id="path80-8"
           style="fill:#151a3f;fill-opacity:1;stroke-width:0.352778" />
        <path
           fill-rule="evenodd"
           fill="#ca2300"
           fill-opacity="1"
           d="m -324.9217,148.98688 -15.37202,15.23284 c 1.76389,2.57555 3.76893,5.01468 5.96415,7.23056 l 9.26317,9.34724 9.3307,-9.24526 c 2.23242,-2.21313 4.26089,-4.63297 6.04683,-7.19336 z m 0,0"
           id="path81-8"
           style="fill:#256494;fill-opacity:1;stroke-width:0.352778" />
        <path
           fill-rule="evenodd"
           fill="#fe7702"
           fill-opacity="1"
           d="m -333.86104,19.476099 c -4.37527,-4.41524 -11.50938,-4.44693 -15.92323,-0.073 -4.41386,4.37389 -4.42902,11.49146 -0.0551,15.90531 l 39.02604,39.38296 0.0345,-0.0344 c 5.03673,-4.99126 7.49929,-12.06335 6.63526,-19.09823 -2.58934,-6.62837 -6.49194,-12.64351 -11.4832,-17.68161 z m 0,0"
           id="path82-2"
           style="fill:#151a3f;fill-opacity:1;stroke-width:0.352778" />
        <path
           fill-rule="evenodd"
           fill="#295c00"
           fill-opacity="1"
           d="m -324.376,29.049329 -8.82772,8.74778 c -2.40605,2.38401 -4.55579,4.99401 -6.44646,7.79419 l 15.12948,15.26866 7.14927,-7.08449 8.1194,-8.04637 c -1.86587,-2.81671 -4.00734,-5.46254 -6.37481,-7.85206 z m 0,0"
           id="path83-8"
           style="fill:#256494;fill-opacity:1;stroke-width:0.352778" />
        <path
           fill-rule="evenodd"
           fill="#b52a8f"
           fill-opacity="1"
           d="m -304.35724,93.912209 c 4.91546,-12.31553 4.97885,-26.06697 0.17501,-38.42798 0.88056,7.08725 -1.56407,14.21033 -6.63663,19.23604 5.00917,5.05602 7.38904,12.13225 6.46162,19.19194 z m 0,0"
           id="path84-0"
           style="fill:#256494;fill-opacity:1;stroke-width:0.352778" />
      </g>
      <g
         id="g392"
         style="fill:#151a3f;fill-opacity:1"
         transform="translate(288.96072,39.031333)">
        <path
           style="font-weight:bold;font-size:35.2778px;line-height:1.1;font-family:'Century Gothic';-inkscape-font-specification:'Century Gothic Bold';letter-spacing:0px;fill:#151a3f;fill-opacity:1;stroke-width:0.5;stroke-linecap:round;stroke-linejoin:round;paint-order:markers stroke fill"
           d="m -125.06882,79.904391 q 2.65273,0 4.97817,1.326362 2.34266,1.326363 3.6518,3.600128 1.30914,2.273764 1.30914,4.909264 0,2.652725 -1.32637,4.960941 -1.30913,2.308215 -3.5829,3.617353 -2.27376,1.291911 -5.01261,1.291911 -4.03077,0 -6.8902,-2.859431 -2.84221,-2.876657 -2.84221,-6.976323 0,-4.3925 3.22117,-7.320833 2.82498,-2.549372 6.49401,-2.549372 z m 0.0689,4.42695 q -2.18764,0 -3.6518,1.533069 -1.44694,1.515843 -1.44694,3.89296 0,2.44602 1.42971,3.961863 1.44694,1.515843 3.65181,1.515843 2.20486,0 3.66903,-1.533069 1.46416,-1.533068 1.46416,-3.944637 0,-2.411568 -1.44694,-3.910186 -1.42971,-1.515843 -3.66903,-1.515843 z"
           id="path391" />
        <path
           style="font-weight:bold;font-size:35.2778px;line-height:1.1;font-family:'Century Gothic';-inkscape-font-specification:'Century Gothic Bold';letter-spacing:0px;fill:#151a3f;fill-opacity:1;stroke-width:0.5;stroke-linecap:round;stroke-linejoin:round;paint-order:markers stroke fill"
           d="m -141.528,73.151999 h 4.70255 v 25.976037 h -4.70255 z"
           id="path390" />
        <path
           style="font-weight:bold;font-size:35.2778px;line-height:1.1;font-family:'Century Gothic';-inkscape-font-specification:'Century Gothic Bold';letter-spacing:0px;fill:#151a3f;fill-opacity:1;stroke-width:0.5;stroke-linecap:round;stroke-linejoin:round;paint-order:markers stroke fill"
           d="m -158.34889,80.386704 v 2.067059 q 1.27468,-1.274686 2.75608,-1.912029 1.48139,-0.637343 3.16949,-0.637343 3.66903,0 6.23562,2.773303 2.5666,2.773304 2.5666,7.114127 0,4.185794 -2.65272,7.010774 -2.65273,2.807755 -6.28731,2.807755 -1.61919,0 -3.01446,-0.568441 -1.39526,-0.585667 -2.7733,-1.894804 v 8.836675 H -163.017 V 80.386704 Z m 4.94371,3.85851 q -2.22208,0 -3.68625,1.515843 -1.46417,1.515843 -1.46417,3.961862 0,2.497696 1.46417,4.04799 1.46417,1.533069 3.68625,1.533069 2.15319,0 3.61736,-1.56752 1.48139,-1.567519 1.48139,-3.996313 0,-2.411568 -1.44694,-3.944637 -1.44694,-1.550294 -3.65181,-1.550294 z"
           id="path389" />
        <path
           style="font-weight:bold;font-size:35.2778px;line-height:1.1;font-family:'Century Gothic';-inkscape-font-specification:'Century Gothic Bold';letter-spacing:0px;fill:#151a3f;fill-opacity:1;stroke-width:0.5;stroke-linecap:round;stroke-linejoin:round;paint-order:markers stroke fill"
           d="m -171.15744,80.386704 h 4.68534 v 18.741332 h -4.68534 v -1.980931 q -1.37804,1.309137 -2.7733,1.894804 -1.37804,0.568441 -2.99724,0.568441 -3.63457,0 -6.2873,-2.807755 -2.65272,-2.82498 -2.65272,-7.010774 0,-4.340823 2.56659,-7.114127 2.5666,-2.773303 6.23563,-2.773303 1.6881,0 3.16949,0.637343 1.48139,0.637343 2.73885,1.912029 z m -4.94371,3.85851 q -2.18764,0 -3.63458,1.550294 -1.44694,1.533069 -1.44694,3.944637 0,2.428794 1.46417,3.996313 1.48139,1.56752 3.63457,1.56752 2.22209,0 3.68626,-1.533069 1.46416,-1.550294 1.46416,-4.04799 0,-2.446019 -1.46416,-3.961862 -1.46417,-1.515843 -3.70348,-1.515843 z"
           id="path388" />
        <path
           style="font-weight:bold;font-size:35.2778px;line-height:1.1;font-family:'Century Gothic';-inkscape-font-specification:'Century Gothic Bold';letter-spacing:0px;fill:#151a3f;fill-opacity:1;stroke-width:0.5;stroke-linecap:round;stroke-linejoin:round;paint-order:markers stroke fill"
           d="m -207.30189,73.789342 h 4.89204 v 9.560147 h 8.47494 v -9.560147 h 4.87482 v 25.338694 h -4.87482 v -11.11044 h -8.47494 v 11.11044 h -4.89204 z"
           id="text25" />
        <path
           style="font-weight:bold;font-size:35.2778px;line-height:1.1;font-family:'Century Gothic';-inkscape-font-specification:'Century Gothic Bold';letter-spacing:0px;fill:#151a3f;fill-opacity:1;stroke-width:0.5;stroke-linecap:round;stroke-linejoin:round;paint-order:markers stroke fill"
           d="m -144.264,109.1395 h 4.71978 v 2.15319 q 1.20579,-1.32636 2.66995,-1.98093 1.4814,-0.65457 3.22117,-0.65457 1.757,0 3.16949,0.86128 1.41249,0.86127 2.27376,2.51492 1.11966,-1.65365 2.73886,-2.51492 1.63642,-0.86128 3.56567,-0.86128 1.99816,0 3.514,0.93018 1.51585,0.93017 2.17041,2.42879 0.6718,1.49862 0.6718,4.87481 v 10.98987 h -4.73701 v -9.50847 q 0,-3.18672 -0.79237,-4.30638 -0.79238,-1.13688 -2.37712,-1.13688 -1.20579,0 -2.17041,0.68902 -0.9474,0.68902 -1.41249,1.91203 -0.46509,1.20579 -0.46509,3.89296 v 8.45772 h -4.73701 V 118.803 q 0,-2.51492 -0.37896,-3.63457 -0.36174,-1.13689 -1.10243,-1.6881 -0.7407,-0.55122 -1.79145,-0.55122 -1.17134,0 -2.13596,0.70625 -0.94741,0.68902 -1.42972,1.94648 -0.46509,1.25746 -0.46509,3.96186 v 8.33714 h -4.71978 z"
           id="path387" />
        <path
           style="font-weight:bold;font-size:35.2778px;line-height:1.1;font-family:'Century Gothic';-inkscape-font-specification:'Century Gothic Bold';letter-spacing:0px;fill:#151a3f;fill-opacity:1;stroke-width:0.5;stroke-linecap:round;stroke-linejoin:round;paint-order:markers stroke fill"
           d="m -153.89743,109.1395 h 4.68534 v 18.74134 h -4.68534 v -1.98093 q -1.37804,1.30913 -2.7733,1.8948 -1.37804,0.56844 -2.99724,0.56844 -3.63457,0 -6.2873,-2.80775 -2.65273,-2.82498 -2.65273,-7.01078 0,-4.34082 2.5666,-7.11413 2.5666,-2.7733 6.23563,-2.7733 1.6881,0 3.16949,0.63734 1.48139,0.63735 2.73885,1.91203 z m -4.94371,3.85851 q -2.18764,0 -3.63458,1.5503 -1.44694,1.53307 -1.44694,3.94463 0,2.4288 1.46416,3.99632 1.4814,1.56752 3.63458,1.56752 2.22209,0 3.68626,-1.53307 1.46416,-1.55029 1.46416,-4.04799 0,-2.44602 -1.46416,-3.96186 -1.46417,-1.51585 -3.70348,-1.51585 z"
           id="path386" />
        <path
           style="font-weight:bold;font-size:35.2778px;line-height:1.1;font-family:'Century Gothic';-inkscape-font-specification:'Century Gothic Bold';letter-spacing:0px;fill:#151a3f;fill-opacity:1;stroke-width:0.5;stroke-linecap:round;stroke-linejoin:round;paint-order:markers stroke fill"
           d="m -171.75371,119.87098 h -15.10676 q 0.32729,1.99816 1.73978,3.18672 1.42971,1.17133 3.63457,1.17133 2.6355,0 4.53031,-1.84312 l 3.96186,1.86035 q -1.48139,2.10151 -3.54845,3.11781 -2.06706,0.99908 -4.90927,0.99908 -4.40972,0 -7.18302,-2.7733 -2.77331,-2.79053 -2.77331,-6.97633 0,-4.28914 2.75608,-7.11412 2.7733,-2.84221 6.94187,-2.84221 4.42695,0 7.20026,2.84221 2.7733,2.82498 2.7733,7.47586 z m -4.71979,-3.70348 q -0.46509,-1.56752 -1.84313,-2.54937 -1.36081,-0.98185 -3.16949,-0.98185 -1.9637,0 -3.44509,1.10243 -0.93018,0.68902 -1.72255,2.42879 z"
           id="path385" />
        <path
           style="font-weight:bold;font-size:35.2778px;line-height:1.1;font-family:'Century Gothic';-inkscape-font-specification:'Century Gothic Bold';letter-spacing:0px;fill:#151a3f;fill-opacity:1;stroke-width:0.5;stroke-linecap:round;stroke-linejoin:round;paint-order:markers stroke fill"
           d="m -207.52459,102.54214 h 14.00432 v 4.75424 h -4.61643 v 20.58446 h -4.89204 v -20.58446 h -4.49585 z"
           id="text25-8" />
        <circle
           style="fill:#151a3f;fill-opacity:1;stroke:none;stroke-width:0.499999;stroke-linecap:round;stroke-linejoin:round;stroke-dasharray:none;stroke-opacity:1;paint-order:markers stroke fill"
           id="path392"
           cx="-119.45707"
           cy="79.704361"
           r="4.3273573" />
      </g>
    </g>
  </g>
</svg>
